<svg xmlns="http://www.w3.org/2000/svg" fill="none" width="37" height="24" viewBox="0 0 37 24"><path d="M35.032 3.043C34.107 1.356 32.918.393 31.64.26 19.66-.856 4.377 1.794 1.25 4.663-.115 5.911-.358 8.846.5 13.642c.595 3.35 1.52 6.35 1.542 6.482l.198.657 3.81-.416A4.287 4.287 0 0 0 10.3 24c2.356 0 4.294-1.905 4.294-4.27 0-.11 0-.197-.022-.307l9.03-1.03v.088c0 2.344 1.915 4.27 4.294 4.27 2.356 0 4.294-1.905 4.294-4.27 0-.35-.044-.7-.132-1.029l3.854-.438.198-.416c1.542-3.153 1.013-9.745-1.08-13.555ZM10.3 22.313a2.596 2.596 0 0 1-2.599-2.583 2.596 2.596 0 0 1 2.599-2.584 2.596 2.596 0 0 1 2.6 2.584 2.596 2.596 0 0 1-2.599 2.584Zm17.574-1.226a2.596 2.596 0 0 1-2.599-2.584 2.596 2.596 0 0 1 2.599-2.584 2.596 2.596 0 0 1 2.598 2.584 2.596 2.596 0 0 1-2.598 2.584Zm6.87-5.628-3.501.395a3.982 3.982 0 0 0-.947-.876 4.173 4.173 0 0 0-2.422-.745 4.292 4.292 0 0 0-3.304 1.555 7.42 7.42 0 0 0-.682.898L14.11 17.78a3.86 3.86 0 0 0-.309-.504c-.021-.022-.021-.044-.043-.066-.793-1.05-2.049-1.752-3.458-1.752a4.295 4.295 0 0 0-2.84 1.073c-.64.526-1.124 1.249-1.41 2.125l-2.599.284C2.065 14.145.876 7.291 2.395 5.89c2.092-1.927 12.817-4.226 23.3-4.226 1.96 0 3.897.087 5.77.263.704.087 1.453.766 2.091 1.927 1.718 3.131 2.269 8.781 1.19 11.606ZM6.25 9.13a1.644 1.644 0 0 0-.991-.284c-.264 0-.485.044-.683.11-.176.087-.33.174-.462.306v3.46H2.659V7.598l1.454-.088v.504l.462-.285c.154-.088.309-.153.507-.219s.352-.088.528-.088c.176 0 .309 0 .397.022.11.022.176.044.242.066v1.62Zm4.14.57c-.066-.394-.22-.679-.44-.876-.22-.197-.485-.285-.815-.285-.375 0-.66.11-.859.329-.198.219-.308.503-.352.854h2.466V9.7Zm1.365.679h-3.81c.089.416.243.722.485.898.242.175.55.284.903.284a3.9 3.9 0 0 0 .947-.131c.352-.088.617-.197.815-.329v1.292c-.198.132-.463.241-.86.307-.373.066-.682.11-.902.11-.903 0-1.63-.241-2.136-.745-.507-.504-.77-1.16-.77-1.993 0-.832.263-1.51.792-2.015.528-.503 1.167-.766 1.96-.766.793 0 1.41.285 1.872.832.462.548.704 1.314.704 2.256Zm4.163.766V8.89a.896.896 0 0 0-.397-.263 1.69 1.69 0 0 0-.594-.11c-.397 0-.705.11-.881.35-.198.242-.287.614-.287 1.118 0 .525.11.897.309 1.16.198.263.484.373.837.373.22 0 .418-.044.594-.11s.309-.153.419-.263Zm1.431 1.577h-1.101l-.308-.482-.771.416a.737.737 0 0 1-.286.088c-.133.022-.22.022-.309.022-.748 0-1.321-.241-1.718-.767-.396-.503-.594-1.139-.594-1.905 0-.832.242-1.49.705-1.97.484-.483 1.1-.724 1.872-.724.22 0 .418.022.594.044.176.044.33.088.485.197V5.386h1.431v7.336Zm4.933-2.321c0-.373-.11-.657-.308-.833-.198-.175-.485-.262-.815-.262h-1.013v2.19h1.145c.33 0 .595-.088.749-.285.154-.175.242-.46.242-.81Zm-.264-2.782c0-.284-.088-.525-.264-.7-.177-.176-.419-.263-.727-.263h-.881v1.97h.969c.286 0 .506-.087.66-.262.177-.197.243-.438.243-.745Zm1.894 2.979c0 .635-.199 1.16-.617 1.533-.418.394-.947.569-1.586.569H18.56V5.408h3.083c.573 0 1.057.153 1.41.481.374.329.55.767.55 1.336 0 .46-.11.81-.33 1.095-.22.285-.55.438-.991.504.44.066.815.263 1.145.57.33.306.485.7.485 1.204Zm5.725 2.124h-1.453v-.57l-.617.351a2.693 2.693 0 0 1-.528.219 2.595 2.595 0 0 1-.595.088c-.506 0-.903-.154-1.211-.46-.286-.307-.44-.723-.44-1.249V7.62h1.453v3.154c0 .197.066.35.198.504.132.153.353.219.617.219s.484-.044.66-.154c.199-.11.33-.197.419-.306V7.598h1.453v5.124h.044Zm5.066-1.752c0 .547-.199 1.007-.595 1.358-.396.328-.903.503-1.498.503-.286 0-.616-.021-.99-.087a3.58 3.58 0 0 1-1.036-.329v-1.292c.243.132.507.241.815.35.308.088.639.154 1.057.154.287 0 .507-.044.683-.11.176-.087.264-.218.264-.438a.398.398 0 0 0-.22-.35c-.154-.087-.396-.153-.77-.175-.662-.044-1.102-.22-1.366-.482-.264-.263-.397-.613-.397-1.051 0-.504.199-.898.595-1.226.396-.329.903-.482 1.475-.482.265 0 .529.022.815.066.287.043.529.087.75.175v1.314a3.701 3.701 0 0 0-.75-.241 4.641 4.641 0 0 0-.815-.088 1.22 1.22 0 0 0-.55.11c-.132.087-.198.175-.198.263 0 .197.088.328.286.372.176.065.374.11.595.11.616.043 1.1.196 1.41.46.285.284.44.656.44 1.116Z" fill="#fff" fill-rule="evenodd" clip-rule="evenodd"/></svg>